<?xml version="1.0" encoding="UTF-8" standalone="no"?> <!-- Created with Vectornator for iOS (http://vectornator.io/) --><!DOCTYPE svg PUBLIC "-//W3C//DTD SVG 1.1//EN" "http://www.w3.org/Graphics/SVG/1.1/DTD/svg11.dtd">
<svg xmlns:xlink="http://www.w3.org/1999/xlink" version="1.1" height="100%" viewBox="0 0 1024 1024" width="60" xmlns="http://www.w3.org/2000/svg" xmlns:vectornator="http://vectornator.io" xml:space="preserve" style="fill-rule:nonzero;clip-rule:evenodd;stroke-linecap:round;stroke-linejoin:round;">
<metadata>
<vectornator:setting key="WDDynamicGuides" value="false"/>
<vectornator:setting value="false" key="WDSnapToPoints"/>
<vectornator:setting value="false" key="WDOutlineMode"/>
<vectornator:setting key="WDSnapToEdges" value="false"/>
<vectornator:setting value="true" key="VNSnapToGuides"/>
<vectornator:setting value="true" key="UndoHistoryDisabled"/>
<vectornator:setting key="VNDimensionsVisible" value="true"/>
<vectornator:setting key="WDSnapToGrid" value="false"/>
<vectornator:setting key="WDIsolateActiveLayer" value="false"/>
<vectornator:setting key="WDUnits" value="Points"/>
<vectornator:setting key="IsTimeLapseWatermarkDisabled" value="false"/>
<vectornator:setting value="false" key="WDCMYKEnabledKey"/>
<vectornator:setting key="WDDisplayWhiteBackground" value="false"/>
<vectornator:setting value="true" key="WDGuidesVisible"/>
<vectornator:setting key="WDRulersVisible" value="true"/>
</metadata>
<defs/>
<g id="Layer 1" vectornator:layerName="Layer 1">
<path stroke="#000" stroke-width="10" fill="#000" stroke-linejoin="round" opacity="1" d="M35.7946+14.2851L1024.2+14.2851C1030.19+14.2851+1035.05+20.7423+1035.05+28.7077L1035.05+74.8625C1035.05+82.8279+1030.19+89.2851+1024.2+89.2851L35.7946+89.2851C29.8047+89.2851+24.9489+82.8279+24.9489+74.8625L24.9489+28.7077C24.9489+20.7423+29.8047+14.2851+35.7946+14.2851Z" stroke-linecap="round"/>
<path stroke-width="10" stroke="#000" opacity="1" d="M34.1833+400.469L1022.59+400.469C1028.58+400.469+1033.44+406.926+1033.44+414.892L1033.44+461.047C1033.44+469.012+1028.58+475.469+1022.59+475.469L34.1833+475.469C28.1934+475.469+23.3376+469.012+23.3376+461.047L23.3376+414.892C23.3376+406.926+28.1934+400.469+34.1833+400.469Z" stroke-linejoin="round" fill="#000" stroke-linecap="round"/>
<path opacity="1" stroke-linejoin="round" stroke-linecap="round" d="M34.5953+795.323L1013.12+795.323C1019.05+795.323+1023.86+801.78+1023.86+809.746L1023.86+855.9C1023.86+863.866+1019.05+870.323+1013.12+870.323L34.5953+870.323C28.6653+870.323+23.858+863.866+23.858+855.9L23.858+809.746C23.858+801.78+28.6653+795.323+34.5953+795.323Z" fill="#000" stroke="#000" stroke-width="10"/>
</g>
</svg>
